<svg width="24" height="23" viewBox="0 0 24 23" fill="none" xmlns="http://www.w3.org/2000/svg">
<g filter="url(#filter0_d_2612_657)">
<path d="M12 5.5C12 4.43913 11.5786 3.42172 10.8284 2.67157C10.0783 1.92143 9.06087 1.5 8 1.5H2V16.5H9C9.79565 16.5 10.5587 16.8161 11.1213 17.3787C11.6839 17.9413 12 18.7044 12 19.5M12 5.5V19.5M12 5.5C12 4.43913 12.4214 3.42172 13.1716 2.67157C13.9217 1.92143 14.9391 1.5 16 1.5H22V16.5H15C14.2044 16.5 13.4413 16.8161 12.8787 17.3787C12.3161 17.9413 12 18.7044 12 19.5" stroke="#FFD400" stroke-width="2.5" stroke-linecap="round" stroke-linejoin="round" shape-rendering="crispEdges"/>
</g>
<defs>
<filter id="filter0_d_2612_657" x="-3.25" y="0.25" width="30.5" height="28.5" filterUnits="userSpaceOnUse" color-interpolation-filters="sRGB">
<feFlood flood-opacity="0" result="BackgroundImageFix"/>
<feColorMatrix in="SourceAlpha" type="matrix" values="0 0 0 0 0 0 0 0 0 0 0 0 0 0 0 0 0 0 127 0" result="hardAlpha"/>
<feOffset dy="4"/>
<feGaussianBlur stdDeviation="2"/>
<feComposite in2="hardAlpha" operator="out"/>
<feColorMatrix type="matrix" values="0 0 0 0 0 0 0 0 0 0 0 0 0 0 0 0 0 0 0.25 0"/>
<feBlend mode="normal" in2="BackgroundImageFix" result="effect1_dropShadow_2612_657"/>
<feBlend mode="normal" in="SourceGraphic" in2="effect1_dropShadow_2612_657" result="shape"/>
</filter>
</defs>
</svg>
