<svg width="24" height="25" viewBox="0 0 24 25" fill="none" xmlns="http://www.w3.org/2000/svg">
<path fill-rule="evenodd" clip-rule="evenodd" d="M13.3333 18.333C13.3333 19.4376 12.4379 20.333 11.3333 20.333C10.6891 20.333 10.1161 20.0284 9.75028 19.5554L3.97714 22.0296C3.99219 22.1286 4 22.2299 4 22.333C4 23.4376 3.10457 24.333 2 24.333C0.895431 24.333 0 23.4376 0 22.333C0 21.2284 0.895431 20.333 2 20.333C2.6442 20.333 3.21726 20.6376 3.58305 21.1106L9.35619 18.6364C9.34114 18.5374 9.33333 18.4361 9.33333 18.333C9.33333 17.2284 10.2288 16.333 11.3333 16.333C12.4379 16.333 13.3333 17.2284 13.3333 18.333Z" fill="#FFD400"/>
<path fill-rule="evenodd" clip-rule="evenodd" d="M20.2878 13.4238C20.9105 13.0849 21.333 12.4248 21.333 11.666C21.333 10.5614 20.4376 9.66602 19.333 9.66602C18.2284 9.66602 17.333 10.5614 17.333 11.666C17.333 12.7654 18.2201 13.6577 19.3176 13.666L21.0448 20.5749C20.4222 20.9138 19.9997 21.5739 19.9997 22.3327C19.9997 23.4373 20.8951 24.3327 21.9997 24.3327C23.1042 24.3327 23.9997 23.4373 23.9997 22.3327C23.9997 21.2333 23.1126 20.341 22.0151 20.3327L20.2878 13.4238Z" fill="#FFD400"/>
<path fill-rule="evenodd" clip-rule="evenodd" d="M24 2.33301C24 3.43758 23.1046 4.33301 22 4.33301C21.5274 4.33301 21.093 4.16907 20.7507 3.89495L7.84963 13.5708C7.94654 13.8057 8 14.0631 8 14.333C8 15.4376 7.10457 16.333 6 16.333C4.89543 16.333 4 15.4376 4 14.333C4 13.2284 4.89543 12.333 6 12.333C6.47263 12.333 6.90697 12.4969 7.24925 12.7711L20.1504 3.09523C20.0535 2.86032 20 2.60291 20 2.33301C20 1.22844 20.8954 0.333008 22 0.333008C23.1046 0.333008 24 1.22844 24 2.33301Z" fill="#FFD400"/>
<path fill-rule="evenodd" clip-rule="evenodd" d="M3.40328 3.75807C3.04225 4.11362 2.54674 4.33301 2 4.33301C0.895431 4.33301 0 3.43758 0 2.33301C0 1.22844 0.895431 0.333008 2 0.333008C3.10457 0.333008 4 1.22844 4 2.33301C4 2.53026 3.97144 2.72085 3.91824 2.90086L7.26339 4.90794C7.62442 4.5524 8.11992 4.33301 8.66667 4.33301C9.77124 4.33301 10.6667 5.22844 10.6667 6.33301C10.6667 7.43758 9.77124 8.33301 8.66667 8.33301C7.5621 8.33301 6.66667 7.43758 6.66667 6.33301C6.66667 6.13575 6.69522 5.94517 6.74843 5.76516L3.40328 3.75807Z" fill="#FFD400"/>
</svg>
