<svg width="24" height="25" viewBox="0 0 24 25" fill="none" xmlns="http://www.w3.org/2000/svg">
<g clip-path="url(#clip0_2226_1024)">
<path d="M21 5.22266C21 6.87951 16.9706 8.22266 12 8.22266C7.02944 8.22266 3 6.87951 3 5.22266M21 5.22266C21 3.5658 16.9706 2.22266 12 2.22266C7.02944 2.22266 3 3.5658 3 5.22266M21 5.22266V19.2227C21 20.8827 17 22.2227 12 22.2227C7 22.2227 3 20.8827 3 19.2227V5.22266M21 12.2227C21 13.8827 17 15.2227 12 15.2227C7 15.2227 3 13.8827 3 12.2227" stroke="#FFD400" stroke-width="2.5" stroke-linecap="round" stroke-linejoin="round"/>
</g>
<defs>
<clipPath id="clip0_2226_1024">
<rect width="24" height="24" fill="white" transform="translate(0 0.222656)"/>
</clipPath>
</defs>
</svg>
