<svg width="24" height="25" viewBox="0 0 24 25" fill="none" xmlns="http://www.w3.org/2000/svg">
<circle cx="12" cy="12.7773" r="11.5" stroke="#FFD400"/>
<circle cx="11.9998" cy="12.7771" r="6.7" stroke="#FFD400"/>
<path d="M18.6002 12.7775H23.4002M16.8002 7.97754L19.8002 4.97754M7.2002 7.97754L4.2002 4.97754M12.0002 19.3775V24.1775" stroke="#FFD400" stroke-linecap="round"/>
<path d="M12 21.1773L14.4 23.5773M13.8 19.3773L16.8 22.3773M16.2 18.1773L19.2 21.1773M18 16.3773L21 19.3773M18.6 13.3773L22.2 16.9773M21.6 12.7773L22.8 13.9773" stroke="#FFD400" stroke-linecap="round"/>
<path d="M6 3.17695L9 6.17695M8.4 1.97695L12.6 6.17695M11.4 1.37695L17.4 7.37695" stroke="#FFD400" stroke-linecap="round"/>
<path d="M15.5996 1.97754L19.1996 5.57754" stroke="#FFD400" stroke-linecap="round"/>
</svg>
