<svg width="24" height="25" viewBox="0 0 24 25" fill="none" xmlns="http://www.w3.org/2000/svg">
<path fill-rule="evenodd" clip-rule="evenodd" d="M1.16452 0.671614L1.09467 2.75355L0.954973 3.50969L0.628651 4.94738L0.349248 5.62891V6.04598L0.256462 6.38675L0.326312 7.02931L0.209549 7.55998L0 8.05164L0.116763 8.61959L0.0469133 9.52834L0.373235 10.7389L0.3503 11.3458L0.536912 11.8002L0.419106 12.1782L0.745428 13.3141L0.792341 14.1466L1.21143 14.4484L1.397 14.9027L1.72332 15.0163L2.04965 15.8114L2.1195 16.6066L2.794 16.7574L3.28293 16.7947L4.02731 17.7035L4.91137 18.4596L5.44618 18.6495L6.28437 18.8004L6.33128 18.4223L7.19242 18.5732L7.30918 18.914L7.56564 19.2921L7.63549 19.5955L7.96181 20.1635L8.05564 20.7687L8.28812 21.1095L8.6603 21.4503L8.84586 21.1485L9.10233 20.6941L9.54434 20.6958L9.91652 21.2638L10.1959 22.3997L10.4983 22.8541L10.5212 23.3847L10.7307 23.99L10.8934 24.1409L11.1498 24.2545L11.4762 24.3307L11.7086 24.4443L11.5689 23.5356L11.6857 22.8168L11.9651 22.3251L12.3373 21.8707L12.6865 21.569L13.0587 21.0773L13.4079 20.8501L13.7343 20.7738L14.1763 20.9264L14.5725 20.9637L14.9217 21.3045L15.2011 21.2672L15.3867 20.9654L15.689 21.3435L15.7818 21.1536L15.5493 20.7755L15.5024 20.3585L15.7119 20.055L16.0841 20.0177L16.3864 20.055L16.6429 19.9787L17.1788 19.8261L17.6437 20.2805L18.0628 20.0533L18.2484 19.9024L18.5976 20.2059L18.9469 20.584L19.0636 21.7945L19.1804 22.1726L19.4827 22.7032L19.8091 23.422L20.2282 23.9137H20.4846L20.6014 23.4593V22.7032L20.4387 21.9081L20.2292 21.3774L19.9498 20.4686L19.6235 19.6362L19.4608 18.8801L19.4838 18.2375L19.6235 17.6323L19.856 17.2152L20.1124 16.7608L20.322 16.2692L20.4387 15.7775L20.8109 15.4757L20.8807 15.0587L21.0903 14.7179L21.4865 14.3398L21.3697 14.0753L21.2769 13.8482L21.5792 13.7719L21.6262 13.4311L21.4865 13.014L21.3916 12.4427L21.1351 12.1392L21.4145 11.7612L21.5772 11.1186L21.5542 10.5879L21.647 10.0963L21.7867 9.52831L21.8805 9.15025L21.671 8.69587L21.8805 8.46869L22.2527 8.3178L22.5321 7.90074L22.7886 7.37006L23.0211 6.953L22.7646 6.38504L22.8814 6.08157L22.7417 5.81709L22.8344 4.98465L23.1608 4.68117L23.2546 4.18952H23.4641L24 3.50798L23.6737 3.2808L23.6038 2.90273L23.4412 2.82644L23.2087 1.65325H22.8136L22.604 1.53966L22.3945 2.33478L22.4414 3.1299L22.3017 3.73513L22.0922 3.92502L22.0432 4.1522L20.74 4.75743L20.3908 5.43897L20.2281 5.74244L20.1583 6.12051L19.2273 6.61217L19.3201 7.2174L18.8781 7.93622L18.4829 8.0888L18.0409 8.77034L17.6687 8.54316L17.6927 8.23969L17.9023 7.82262L17.9492 6.80029L17.6927 5.3999L17.2038 5.02183L17.0411 4.79465L16.9014 4.49117L16.7388 4.45388L15.1093 3.0908L14.7601 3.50787L14.4807 3.31798L14.1784 3.28068L13.9459 3.47057L13.7363 3.20609L13.5966 3.28238L13.3641 2.79072L13.0149 3.0552L12.7126 2.90431C12.7126 2.90431 12.5499 2.07187 12.5499 2.18549C12.5499 2.29909 12.4571 2.60256 12.4571 2.60256L10.8277 2.67885L9.73405 2.52796L8.47677 2.41437L7.19655 2.22449L5.89339 1.84642L4.75288 1.50565L3.5425 1.08858L2.58859 0.74781L1.77333 0.444336L1.7504 0.822404L1.68055 1.12418L1.16452 0.671614ZM4.36856 7.28845C5.38898 8.04607 6.84184 8.83555 8.49184 8.83555H8.50961H8.52738H8.54515H8.56292H8.58069H8.59846H8.61623H8.634H8.65176H8.66953H8.68729H8.70505H8.72281H8.74057H8.75832H8.77608H8.79383H8.81158H8.82932H8.84707H8.86481H8.88255H8.90029H8.91802H8.93575H8.95348H8.9712H8.98892H9.00663H9.02434H9.04205H9.05975H9.07745H9.09515H9.11284H9.13052H9.1482H9.16588H9.18355H9.20121H9.21887H9.23652H9.25417H9.27181H9.28945H9.30708H9.3247H9.34232H9.35993H9.37754H9.39513H9.41272H9.43031H9.44788H9.46545H9.48301H9.50057H9.51811H9.53565H9.55318H9.57071H9.58822H9.60572H9.62322H9.64071H9.65819H9.67566H9.69312H9.71057H9.72802H9.74545H9.76287H9.78029H9.79769H9.81509H9.83247H9.84984H9.86721H9.88456H9.9019H9.91923H9.93655H9.95386H9.97116H9.98845H10.0057H10.023H10.0402H10.0575H10.0747H10.0919H10.1091H10.1263H10.1435H10.1607H10.1778H10.1949H10.2121H10.2292H10.2463H10.2634H10.2804H10.2975H10.3145H10.3316H10.3486H10.3656H10.3826H10.3995H10.4165H10.4334H10.4504H10.4673H10.4842H10.5011H10.5179H10.5348H10.5516H10.5684H10.5852H10.602H10.6188H10.6355H10.6523H10.669H10.6857H10.7024H10.7191H10.7357H10.7523H10.769H10.7856H10.8021H10.8187H10.8352H10.8518H10.8683H10.8848H10.9012H10.9177H10.9341H10.9505H10.9669H10.9833H10.9997H11.016H11.0323H11.0486H11.0649H11.0811H11.0974H11.1136H11.1298H11.1459H11.1621H11.1782H11.1943H11.2104H11.2265H11.2425H11.2586H11.2746H11.2905H11.3065H11.3224H11.3384H11.3542H11.3701H11.386H11.4018H11.4176H11.4334H11.4491H11.4648H11.4805H11.4962H11.5119H11.5275H11.5431H11.5587H11.5743H11.5898H11.6053H11.6208H11.6363H11.6517H11.6671H11.6825H11.6979H11.7132H11.7285H11.7438H11.7591H11.7743H11.7895H11.8047H11.8198H11.835H11.8501H11.8651H11.8802H11.8952H11.9102H11.9252H11.9401H11.955H11.9699H11.9847H11.9996H12.0143H12.0291H12.0439H12.0586H12.0732H12.0879H12.1025H12.1171H12.1317H12.1462H12.1607H12.1752H12.1896H12.204H12.2184H12.2328H12.2378V10.3084V11.5879L13.1053 10.6474L14.925 8.67455L15.2377 8.33555L14.925 7.99655L13.1053 6.02375L12.2378 5.08322V6.36275V7.83555H12.2328H12.2184H12.204H12.1896H12.1752H12.1607H12.1462H12.1317H12.1171H12.1025H12.0879H12.0732H12.0586H12.0439H12.0291H12.0143H11.9996H11.9847H11.9699H11.955H11.9401H11.9252H11.9102H11.8952H11.8802H11.8651H11.8501H11.835H11.8198H11.8047H11.7895H11.7743H11.7591H11.7438H11.7285H11.7132H11.6979H11.6825H11.6671H11.6517H11.6363H11.6208H11.6053H11.5898H11.5743H11.5587H11.5431H11.5275H11.5119H11.4962H11.4805H11.4648H11.4491H11.4334H11.4176H11.4018H11.386H11.3701H11.3542H11.3384H11.3224H11.3065H11.2905H11.2746H11.2586H11.2425H11.2265H11.2104H11.1943H11.1782H11.1621H11.1459H11.1298H11.1136H11.0974H11.0811H11.0649H11.0486H11.0323H11.016H10.9997H10.9833H10.9669H10.9505H10.9341H10.9177H10.9012H10.8848H10.8683H10.8518H10.8352H10.8187H10.8021H10.7856H10.769H10.7523H10.7357H10.7191H10.7024H10.6857H10.669H10.6523H10.6355H10.6188H10.602H10.5852H10.5684H10.5516H10.5348H10.5179H10.5011H10.4842H10.4673H10.4504H10.4334H10.4165H10.3995H10.3826H10.3656H10.3486H10.3316H10.3145H10.2975H10.2804H10.2634H10.2463H10.2292H10.2121H10.1949H10.1778H10.1607H10.1435H10.1263H10.1091H10.0919H10.0747H10.0575H10.0402H10.023H10.0057H9.98845H9.97116H9.95386H9.93655H9.91923H9.9019H9.88456H9.86721H9.84984H9.83247H9.81509H9.79769H9.78029H9.76287H9.74545H9.72802H9.71057H9.69312H9.67566H9.65819H9.64071H9.62322H9.60572H9.58822H9.57071H9.55318H9.53565H9.51811H9.50057H9.48301H9.46545H9.44788H9.43031H9.41272H9.39513H9.37754H9.35993H9.34232H9.3247H9.30708H9.28945H9.27181H9.25417H9.23652H9.21887H9.20121H9.18355H9.16588H9.1482H9.13052H9.11284H9.09515H9.07745H9.05975H9.04205H9.02434H9.00663H8.98892H8.9712H8.95348H8.93575H8.91802H8.90029H8.88255H8.86481H8.84707H8.82932H8.81158H8.79383H8.77608H8.75832H8.74057H8.72281H8.70505H8.68729H8.66953H8.65176H8.634H8.61623H8.59846H8.58069H8.56292H8.54515H8.52738H8.50961H8.49184C7.13273 7.83555 5.87407 7.16827 4.92517 6.45606C4.45618 6.10405 4.07648 5.75128 3.81449 5.48682C3.68376 5.35487 3.58304 5.24562 3.5159 5.17044C3.48235 5.13287 3.45723 5.10387 3.441 5.08486L3.42338 5.06404L3.41968 5.05961L3.41929 5.05913C3.41937 5.05923 3.41946 5.05933 3.0328 5.37635C2.56108 5.5421 2.56112 5.54222 2.56117 5.54236L2.56131 5.54277L2.56177 5.54407L2.56335 5.54853L2.56916 5.56484L2.59132 5.62601C2.61073 5.67911 2.63937 5.75641 2.67696 5.85501C2.75213 6.05217 2.86315 6.3347 3.00765 6.67938C3.29641 7.36808 3.72023 8.30809 4.26053 9.31227C5.32555 11.2916 6.90023 13.6311 8.86012 14.6935C10.7677 15.7276 12.9644 15.9825 14.664 15.9869V17.2132V18.2642L15.4794 17.6011L17.9057 15.6283L18.3828 15.2404L17.9057 14.8524L15.4794 12.8796L14.664 12.2166V13.2676V14.9869C13.0415 14.9824 11.0358 14.7354 9.33669 13.8144C7.65722 12.904 6.1991 10.8047 5.14115 8.83844C4.84715 8.29202 4.58846 7.76442 4.36856 7.28845ZM13.2378 8.83555V9.02882L13.416 8.83555H13.4052H13.3943H13.3832H13.3722H13.3611H13.3499H13.3387H13.3275H13.3162H13.3049H13.2935H13.2821H13.2707H13.2592H13.2477H13.2378ZM13.416 7.83555H13.4052H13.3943H13.3832H13.3722H13.3611H13.3499H13.3387H13.3275H13.3162H13.3049H13.2935H13.2821H13.2707H13.2592H13.2477H13.2378V7.64228L13.416 7.83555ZM15.664 16.1622V15.9613C15.7554 15.9564 15.8445 15.9509 15.9311 15.945L15.664 16.1622ZM15.664 14.9597C15.9264 14.9449 16.168 14.9251 16.3836 14.9037L15.664 14.3185V14.9597Z" fill="#FFD400"/>
</svg>
