<svg width="22" height="25" viewBox="0 0 22 25" fill="none" xmlns="http://www.w3.org/2000/svg">
<path d="M9.16536 17.7843H5.6912C2.60203 17.7843 1.83203 16.9443 1.83203 13.5743V7.57426C1.83203 4.20426 2.60203 3.36426 5.6912 3.36426H15.3437C18.4329 3.36426 19.2029 4.20426 19.2029 7.57426" stroke="#FFD400" stroke-width="1.5" stroke-linecap="round" stroke-linejoin="round"/>
<path d="M9.16797 22.3042V17.7842" stroke="#FFD400" stroke-width="1.5" stroke-linecap="round" stroke-linejoin="round"/>
<path d="M1.83203 13.7842H9.16536" stroke="#FFD400" stroke-width="1.5" stroke-linecap="round" stroke-linejoin="round"/>
<path d="M6.17969 22.3037H9.16802" stroke="#FFD400" stroke-width="1.5" stroke-linecap="round" stroke-linejoin="round"/>
<path d="M20.1652 13.6338V19.3438C20.1652 21.7138 19.6244 22.3038 17.4519 22.3038H14.1977C12.0252 22.3038 11.4844 21.7138 11.4844 19.3438V13.6338C11.4844 11.2638 12.0252 10.6738 14.1977 10.6738H17.4519C19.6244 10.6738 20.1652 11.2638 20.1652 13.6338Z" stroke="#FFD400" stroke-width="1.5" stroke-linecap="round" stroke-linejoin="round"/>
<path d="M15.8088 19.084H15.817" stroke="#FFD400" stroke-width="2" stroke-linecap="round" stroke-linejoin="round"/>
</svg>
